<svg viewBox="0 0 900 360" xmlns="http://www.w3.org/2000/svg" width="900" height="360">
  <defs>
    <style>
      .bg { fill: #06080f; }
      .fn { font-family: 'Segoe UI','Helvetica Neue',Arial,sans-serif; }
      .fm { font-family: 'Courier New',Courier,monospace; }
      .hdr { font-size: 14px; fill: #e0e7ff; font-weight: 700; letter-spacing: 0.5px; }
      .hsub { font-size: 10px; fill: #475569; }
      .cat { font-size: 10px; font-weight: 700; letter-spacing: 1.5px; }
      .skill-name { font-size: 11px; fill: #cbd5e1; font-weight: 500; }
      .skill-pct { font-size: 9px; fill: #64748b; font-weight: 700; text-anchor: end; }
      .bar-track { fill: #1e293b; rx: 3; }
      .panel-bg { fill: #0d1224; stroke: #1e293b; stroke-width: 1; }
      .pill-name { font-size: 9px; font-weight: 600; text-anchor: middle; }
      .widget-title { font-size: 10px; font-weight: 700; letter-spacing: 0.5px; }
      .widget-label { font-size: 9px; fill: #94a3b8; }
      .widget-val { font-size: 9px; fill: #cbd5e1; font-weight: 600; }
    </style>

    <!-- Bar fill gradients -->
    <linearGradient id="fill-amber" x1="0" y1="0" x2="1" y2="0">
      <stop offset="0%" stop-color="#f59e0b"/>
      <stop offset="100%" stop-color="#fbbf24"/>
    </linearGradient>
    <linearGradient id="fill-violet" x1="0" y1="0" x2="1" y2="0">
      <stop offset="0%" stop-color="#8b5cf6"/>
      <stop offset="100%" stop-color="#a78bfa"/>
    </linearGradient>
    <linearGradient id="fill-rose" x1="0" y1="0" x2="1" y2="0">
      <stop offset="0%" stop-color="#f43f5e"/>
      <stop offset="100%" stop-color="#fb7185"/>
    </linearGradient>
    <linearGradient id="fill-cyan" x1="0" y1="0" x2="1" y2="0">
      <stop offset="0%" stop-color="#06b6d4"/>
      <stop offset="100%" stop-color="#22d3ee"/>
    </linearGradient>

    <!-- Gauge gradients -->
    <linearGradient id="gauge-grad" x1="0" y1="1" x2="0" y2="0">
      <stop offset="0%" stop-color="#f59e0b"/>
      <stop offset="100%" stop-color="#22d3ee"/>
    </linearGradient>
  </defs>

  <!-- Background -->
  <rect width="900" height="360" fill="#06080f" rx="10"/>
  <rect width="900" height="360" fill="none" stroke="#1e293b" stroke-width="1" rx="10"/>

  <!-- Header -->
  <text x="30" y="32" class="fn hdr">Tech Stack</text>
  <text x="30" y="46" class="fn hsub">Proficiency by domain — only claiming tools with production evidence</text>
  <line x1="30" y1="56" x2="870" y2="56" stroke="#1e293b" stroke-width="1"/>

  <!-- ========== COLUMN 1: ML and DL (x=20..280) ========== -->

  <!-- Category: Deep Learning -->
  <circle cx="32" cy="78" r="3" fill="#f59e0b"/>
  <text x="42" y="82" class="fn cat" fill="#f59e0b">DEEP LEARNING</text>

  <!-- PyTorch -->
  <text x="30" y="103" class="fn skill-name">PyTorch</text>
  <text x="262" y="103" class="fm skill-pct">95%</text>
  <rect x="30" y="107" width="232" height="5" class="bar-track"/>
  <rect x="30" y="107" width="220" height="5" rx="3" fill="url(#fill-amber)"/>

  <!-- HuggingFace -->
  <text x="30" y="126" class="fn skill-name">HuggingFace</text>
  <text x="262" y="126" class="fm skill-pct">90%</text>
  <rect x="30" y="130" width="232" height="5" class="bar-track"/>
  <rect x="30" y="130" width="209" height="5" rx="3" fill="url(#fill-amber)"/>

  <!-- TensorFlow -->
  <text x="30" y="149" class="fn skill-name">TensorFlow</text>
  <text x="262" y="149" class="fm skill-pct">78%</text>
  <rect x="30" y="153" width="232" height="5" class="bar-track"/>
  <rect x="30" y="153" width="181" height="5" rx="3" fill="url(#fill-amber)"/>

  <!-- OpenCV -->
  <text x="30" y="172" class="fn skill-name">OpenCV</text>
  <text x="262" y="172" class="fm skill-pct">82%</text>
  <rect x="30" y="176" width="232" height="5" class="bar-track"/>
  <rect x="30" y="176" width="190" height="5" rx="3" fill="url(#fill-amber)"/>

  <line x1="30" y1="194" x2="262" y2="194" stroke="#1e293b" stroke-width="0.5"/>

  <!-- Category: NLP / LLMs -->
  <circle cx="32" cy="212" r="3" fill="#8b5cf6"/>
  <text x="42" y="216" class="fn cat" fill="#8b5cf6">NLP / LLMs</text>

  <!-- Transformers -->
  <text x="30" y="237" class="fn skill-name">Transformers</text>
  <text x="262" y="237" class="fm skill-pct">88%</text>
  <rect x="30" y="241" width="232" height="5" class="bar-track"/>
  <rect x="30" y="241" width="204" height="5" rx="3" fill="url(#fill-violet)"/>

  <!-- llama.cpp -->
  <text x="30" y="260" class="fn skill-name">llama.cpp / GGUF</text>
  <text x="262" y="260" class="fm skill-pct">85%</text>
  <rect x="30" y="264" width="232" height="5" class="bar-track"/>
  <rect x="30" y="264" width="197" height="5" rx="3" fill="url(#fill-violet)"/>

  <!-- Fine-tuning -->
  <text x="30" y="283" class="fn skill-name">Fine-tuning (SFT/LoRA)</text>
  <text x="262" y="283" class="fm skill-pct">80%</text>
  <rect x="30" y="287" width="232" height="5" class="bar-track"/>
  <rect x="30" y="287" width="186" height="5" rx="3" fill="url(#fill-violet)"/>

  <!-- RAG -->
  <text x="30" y="306" class="fn skill-name">RAG / ChromaDB</text>
  <text x="262" y="306" class="fm skill-pct">83%</text>
  <rect x="30" y="310" width="232" height="5" class="bar-track"/>
  <rect x="30" y="310" width="193" height="5" rx="3" fill="url(#fill-violet)"/>

  <!-- Separator -->
  <line x1="284" y1="68" x2="284" y2="330" stroke="#1e293b" stroke-width="1" stroke-dasharray="4,4"/>

  <!-- ========== COLUMN 2: Agents / Systems (x=300..560) ========== -->

  <!-- Category: Agentic / MLOps -->
  <circle cx="312" cy="78" r="3" fill="#f43f5e"/>
  <text x="322" y="82" class="fn cat" fill="#f43f5e">AGENTIC / MLOPS</text>

  <!-- LangGraph -->
  <text x="310" y="103" class="fn skill-name">LangGraph</text>
  <text x="542" y="103" class="fm skill-pct">88%</text>
  <rect x="310" y="107" width="232" height="5" class="bar-track"/>
  <rect x="310" y="107" width="204" height="5" rx="3" fill="url(#fill-rose)"/>

  <!-- FastAPI -->
  <text x="310" y="126" class="fn skill-name">FastAPI / WebSockets</text>
  <text x="542" y="126" class="fm skill-pct">90%</text>
  <rect x="310" y="130" width="232" height="5" class="bar-track"/>
  <rect x="310" y="130" width="209" height="5" rx="3" fill="url(#fill-rose)"/>

  <!-- scikit-learn -->
  <text x="310" y="149" class="fn skill-name">scikit-learn</text>
  <text x="542" y="149" class="fm skill-pct">87%</text>
  <rect x="310" y="153" width="232" height="5" class="bar-track"/>
  <rect x="310" y="153" width="202" height="5" rx="3" fill="url(#fill-rose)"/>

  <!-- Docker -->
  <text x="310" y="172" class="fn skill-name">Docker</text>
  <text x="542" y="172" class="fm skill-pct">75%</text>
  <rect x="310" y="176" width="232" height="5" class="bar-track"/>
  <rect x="310" y="176" width="174" height="5" rx="3" fill="url(#fill-rose)"/>

  <line x1="310" y1="194" x2="542" y2="194" stroke="#1e293b" stroke-width="0.5"/>

  <!-- Category: Systems / Infra -->
  <circle cx="312" cy="212" r="3" fill="#06b6d4"/>
  <text x="322" y="216" class="fn cat" fill="#06b6d4">SYSTEMS / INFRA</text>

  <!-- Python -->
  <text x="310" y="237" class="fn skill-name">Python</text>
  <text x="542" y="237" class="fm skill-pct">95%</text>
  <rect x="310" y="241" width="232" height="5" class="bar-track"/>
  <rect x="310" y="241" width="220" height="5" rx="3" fill="url(#fill-cyan)"/>

  <!-- Linux / Bash -->
  <text x="310" y="260" class="fn skill-name">Linux / Bash</text>
  <text x="542" y="260" class="fm skill-pct">88%</text>
  <rect x="310" y="264" width="232" height="5" class="bar-track"/>
  <rect x="310" y="264" width="204" height="5" rx="3" fill="url(#fill-cyan)"/>

  <!-- C++ -->
  <text x="310" y="283" class="fn skill-name">C++</text>
  <text x="542" y="283" class="fm skill-pct">70%</text>
  <rect x="310" y="287" width="232" height="5" class="bar-track"/>
  <rect x="310" y="287" width="162" height="5" rx="3" fill="url(#fill-cyan)"/>

  <!-- Flutter -->
  <text x="310" y="306" class="fn skill-name">Flutter / Dart</text>
  <text x="542" y="306" class="fm skill-pct">65%</text>
  <rect x="310" y="310" width="232" height="5" class="bar-track"/>
  <rect x="310" y="310" width="151" height="5" rx="3" fill="url(#fill-cyan)"/>

  <!-- Separator -->
  <line x1="564" y1="68" x2="564" y2="330" stroke="#1e293b" stroke-width="1" stroke-dasharray="4,4"/>

  <!-- ========== COLUMN 3: Right panel ========== -->

  <!-- Active Setup Widget -->
  <rect x="580" y="68" width="295" height="110" rx="8" class="panel-bg"/>
  <rect x="580" y="68" width="295" height="110" rx="8" fill="none" stroke="#f59e0b" stroke-width="0.75" opacity="0.3">
    <animate attributeName="opacity" values="0.15;0.4;0.15" dur="3s" repeatCount="indefinite"/>
  </rect>

  <circle cx="596" cy="87" r="3.5" fill="#10b981">
    <animate attributeName="opacity" values="1;0.4;1" dur="1.5s" repeatCount="indefinite"/>
  </circle>
  <text x="607" y="91" class="fn widget-title" fill="#fbbf24">ACTIVE HARDWARE</text>

  <text x="596" y="110" class="fm widget-label">Platform  <tspan class="widget-val">Jetson AGX Orin + NX</tspan></text>
  <text x="596" y="124" class="fm widget-label">Runtime   <tspan class="widget-val">llama.cpp + FastAPI</tspan></text>
  <text x="596" y="138" class="fm widget-label">Network   <tspan class="widget-val">TailScale mesh VPN</tspan></text>
  <text x="596" y="152" class="fm widget-label">Model     <tspan class="widget-val">Qwen2.5-1.5B SFT</tspan></text>

  <!-- Blinking cursor -->
  <rect x="596" y="160" width="5" height="10" fill="#f59e0b" opacity="0.6">
    <animate attributeName="opacity" values="0.6;0;0.6" dur="1s" repeatCount="indefinite"/>
  </rect>

  <!-- Also Used Pills -->
  <rect x="580" y="192" width="295" height="130" rx="8" class="panel-bg"/>
  <text x="596" y="212" class="fn widget-title" fill="#a78bfa">OTHER TOOLS IN PRODUCTION</text>

  <!-- Row 1 -->
  <rect x="596" y="222" width="46" height="16" rx="8" fill="#f59e0b0d" stroke="#f59e0b30" stroke-width="0.5"/>
  <text x="619" y="233" class="fn pill-name" fill="#fbbf24">Pandas</text>
  <rect x="648" y="222" width="58" height="16" rx="8" fill="#8b5cf60d" stroke="#8b5cf630" stroke-width="0.5"/>
  <text x="677" y="233" class="fn pill-name" fill="#a78bfa">Streamlit</text>
  <rect x="712" y="222" width="42" height="16" rx="8" fill="#f43f5e0d" stroke="#f43f5e30" stroke-width="0.5"/>
  <text x="733" y="233" class="fn pill-name" fill="#fb7185">SQLite</text>
  <rect x="760" y="222" width="62" height="16" rx="8" fill="#06b6d40d" stroke="#06b6d430" stroke-width="0.5"/>
  <text x="791" y="233" class="fn pill-name" fill="#22d3ee">LangChain</text>

  <!-- Row 2 -->
  <rect x="596" y="244" width="44" height="16" rx="8" fill="#eab3080d" stroke="#eab30830" stroke-width="0.5"/>
  <text x="618" y="255" class="fn pill-name" fill="#fbbf24">Jupyter</text>
  <rect x="646" y="244" width="44" height="16" rx="8" fill="#8b5cf60d" stroke="#8b5cf630" stroke-width="0.5"/>
  <text x="668" y="255" class="fn pill-name" fill="#a78bfa">Gemini</text>
  <rect x="696" y="244" width="46" height="16" rx="8" fill="#10b9810d" stroke="#10b98130" stroke-width="0.5"/>
  <text x="719" y="255" class="fn pill-name" fill="#34d399">YOLOv8</text>
  <rect x="748" y="244" width="34" height="16" rx="8" fill="#f43f5e0d" stroke="#f43f5e30" stroke-width="0.5"/>
  <text x="765" y="255" class="fn pill-name" fill="#fb7185">NLTK</text>
  <rect x="788" y="244" width="40" height="16" rx="8" fill="#06b6d40d" stroke="#06b6d430" stroke-width="0.5"/>
  <text x="808" y="255" class="fn pill-name" fill="#22d3ee">Plotly</text>

  <!-- Row 3 -->
  <rect x="596" y="266" width="60" height="16" rx="8" fill="#eab3080d" stroke="#eab30830" stroke-width="0.5"/>
  <text x="626" y="277" class="fn pill-name" fill="#fbbf24">x402 proto</text>
  <rect x="662" y="266" width="54" height="16" rx="8" fill="#8b5cf60d" stroke="#8b5cf630" stroke-width="0.5"/>
  <text x="689" y="277" class="fn pill-name" fill="#a78bfa">TailScale</text>
  <rect x="722" y="266" width="36" height="16" rx="8" fill="#10b9810d" stroke="#10b98130" stroke-width="0.5"/>
  <text x="740" y="277" class="fn pill-name" fill="#34d399">CUDA</text>
  <rect x="764" y="266" width="64" height="16" rx="8" fill="#ec48990d" stroke="#ec489930" stroke-width="0.5"/>
  <text x="796" y="277" class="fn pill-name" fill="#f472b6">JetPack 6.x</text>

  <!-- Row 4 -->
  <rect x="596" y="288" width="36" height="16" rx="8" fill="#f59e0b0d" stroke="#f59e0b30" stroke-width="0.5"/>
  <text x="614" y="299" class="fn pill-name" fill="#fbbf24">Git</text>
  <rect x="638" y="288" width="44" height="16" rx="8" fill="#06b6d40d" stroke="#06b6d430" stroke-width="0.5"/>
  <text x="660" y="299" class="fn pill-name" fill="#22d3ee">Plotly</text>
  <rect x="688" y="288" width="70" height="16" rx="8" fill="#f43f5e0d" stroke="#f43f5e30" stroke-width="0.5"/>
  <text x="723" y="299" class="fn pill-name" fill="#fb7185">WebSockets</text>

  <text x="596" y="316" class="fn" font-size="7.5" fill="#334155">* self-assessed proficiency — backed by active repositories</text>

  <!-- Footer -->
  <line x1="30" y1="340" x2="870" y2="340" stroke="#1e293b" stroke-width="0.5"/>
  <text x="870" y="353" text-anchor="end" class="fm" font-size="9" fill="#475569">devanshsingh.dev</text>
</svg>
